<svg xmlns="http://www.w3.org/2000/svg" width="300" height="400" viewBox="0 0 300 400">
  <path d="M150 50 C 100 150, 200 150, 150 250 Q 100 300, 150 350 Q 200 300, 150 250" fill="none" stroke="black" stroke-width="2" />
  <circle cx="125" cy="150" r="10" fill="black" />
  <circle cx="175" cy="150" r="10" fill="black" />
  <line x1="125" y1="200" x2="175" y2="200" stroke="black" stroke-width="2" />
  
  <!-- Hair -->
  <path d="M120 80 Q 150 40, 180 80 Q 150 100, 120 80" fill="#c96b3f" stroke="none" />
  <path d="M120 80 Q 150 100, 180 80" fill="#c96b3f" stroke="none" />
  
  <!-- Face -->
  <circle cx="150" cy="150" r="60" fill="#fcd5b6" stroke="none" />
  
  <!-- Eyes -->
  <circle cx="135" cy="140" r="8" fill="white" stroke="none" />
  <circle cx="165" cy="140" r="8" fill="white" stroke="none" />
  
  <!-- Eyebrows -->
  <path d="M125 130 Q 135 120, 145 130" fill="none" stroke="black" stroke-width="2" />
  <path d="M155 130 Q 165 120, 175 130" fill="none" stroke="black" stroke-width="2" />
  
  <!-- Lips -->
  <path d="M135 170 Q 150 185, 165 170" fill="none" stroke="black" stroke-width="2" />
  
  <!-- Neck -->
  <rect x="142" y="200" width="16" height="25" fill="#fcd5b6" stroke="none" />
  
  <!-- Body -->
  <path d="M120 225 Q 150 265, 180 225" fill="#fcd5b6" stroke="none" />
  
  <!-- Dress -->
  <path d="M120 225 Q 150 275, 180 225" fill="#fcf8a6" stroke="none" />
  
  <!-- Arms -->
  <path d="M100 225 Q 80 250, 100 275" fill="#fcd5b6" stroke="none" />
  <path d="M220 225 Q 240 250, 220 275" fill="#fcd5b6" stroke="none" />
  
  <!-- Legs -->
  <path d="M130 275 Q 150 325, 170 275" fill="#fcd5b6" stroke="none" />
</svg>